# xmcd
#
# Track frame offsets:
#	150
#	20081
#	38356
#	55800
#	73127
#	89983
#	107863
#	126179
#	142425
#	159227
#	177585
#
# Disc length: 2609 seconds
#
# Revision: 5
# Processed by: cddbd v1.5.2PL0 Copyright (c) Steve Scherf et al.
# Submitted via: EasyCDDAExtractor 15.3.0.1
#
DISCID=a60a2f0b
DTITLE=Gisselle - Voy A Enamorarte
DYEAR=2000
DGENRE=Latin
TTITLE0=Te Voy A Amar
TTITLE1=Jurame (Balada)
TTITLE2=Dime Luna
TTITLE3=Voy A Enamorarte
TTITLE4=Que No Diera
TTITLE5=No Me Enamoro
TTITLE6=Quien Te Hace El Amor
TTITLE7=Estar Contigo
TTITLE8=Dimelo Ya
TTITLE9=Prefiero Decir Adios
TTITLE10=Jurame (Merengue)
EXTD=
EXTT0=
EXTT1=
EXTT2=
EXTT3=
EXTT4=
EXTT5=
EXTT6=
EXTT7=
EXTT8=
EXTT9=
EXTT10=
PLAYORDER=
